<svg id="Layer_1" data-name="Layer 1" xmlns="http://www.w3.org/2000/svg" xmlns:xlink="http://www.w3.org/1999/xlink" viewBox="0 0 424.49 394.1"><defs><style>.cls-1{fill:#002a84;}.cls-2{fill:#002668;}.cls-3{fill:#67aaea;}.cls-4{fill:#2b73b5;}.cls-5{fill:#ffb21b;}.cls-6{fill:#fff;}.cls-7{fill:#328ebc;}.cls-8{fill:#ff3025;}.cls-9{opacity:0.25;}.cls-10{fill:#1e120d;}.cls-11{opacity:0.89;}.cls-12{opacity:0.69;}.cls-13{opacity:0.43;}.cls-14{opacity:0.28;}.cls-15{fill:url(#linear-gradient);}.cls-16{fill:url(#linear-gradient-2);}.cls-17{fill:url(#linear-gradient-3);}.cls-18{fill:url(#linear-gradient-4);}</style><linearGradient id="linear-gradient" x1="601.1" y1="351.7" x2="645.18" y2="351.7" gradientTransform="translate(-305.05 -371.44) rotate(3.14)" gradientUnits="userSpaceOnUse"><stop offset="0" stop-color="#fff"/><stop offset="0.15" stop-color="#4497ce"/><stop offset="0.41" stop-color="#0071bc"/><stop offset="0.97" stop-color="#0071bc"/></linearGradient><linearGradient id="linear-gradient-2" x1="730.42" y1="488.04" x2="757.51" y2="488.04" xlink:href="#linear-gradient"/><linearGradient id="linear-gradient-3" x1="450.13" y1="726.92" x2="494.21" y2="726.92" xlink:href="#linear-gradient"/><linearGradient id="linear-gradient-4" x1="337.8" y1="590.58" x2="364.89" y2="590.58" xlink:href="#linear-gradient"/></defs><path d="M645.13,429.49h58.78a4.84,4.84,0,0,1,4.84,4.84v2.73a0,0,0,0,1,0,0H640.29a0,0,0,0,1,0,0v-2.73a4.84,4.84,0,0,1,4.84-4.84Z" transform="translate(264.81 -707.72) rotate(51.91)"/><path d="M379.22,634.11h68.46a0,0,0,0,1,0,0v2.73a4.84,4.84,0,0,1-4.84,4.84H384.06a4.84,4.84,0,0,1-4.84-4.84v-2.73A0,0,0,0,1,379.22,634.11Z" transform="translate(325.84 -423.85) rotate(51.91)"/><path class="cls-1" d="M639.77,402.09a39.18,39.18,0,0,0-28.1.28c-4.18,1.64-9.5,3.92-16,7-11.12,5.32-21.19,15.23-27.63,22.52a153.9,153.9,0,0,1-20.33,19.21L482.92,501.9a151.42,151.42,0,0,1-17.53,11.86l-28.83,16.69a37.13,37.13,0,0,0-4.82,3.32c-23.19,18.87-33.07,37.3-37.26,49a37,37,0,0,0,0,25.09,79.44,79.44,0,0,0,12.61,22q6.42,8.06,12.71,16.22a80,80,0,0,0,18.32,17.5,37,37,0,0,0,24.36,6c12.32-1.28,32.58-6.47,56.44-24.48a37.41,37.41,0,0,0,4.37-3.88l23.1-24a151.78,151.78,0,0,1,15.7-14.18l64.76-50.76A153.7,153.7,0,0,1,650.38,537c8.62-4.52,20.64-11.94,28.46-21.46,4.59-5.59,8.08-10.22,10.67-13.88a39.16,39.16,0,0,0,7-27.22c-1.32-11.13-5.84-26.74-19-43.53S650.26,406,639.77,402.09Z" transform="translate(-334.63 -342.83)"/><path class="cls-2" d="M637.69,420.54c-22.08,5.51-69.49,26.21-73.61,30.07s-23.62,34-40.54,47.29c-14.3,11.21-91.35,78.69-114.89,99.34a10.68,10.68,0,0,0-2,13.7l1.1,1.76a228.81,228.81,0,0,0,29.41,37.51l1.44,1.49A10.68,10.68,0,0,0,452.39,653c25.67-17.92,109.6-76.61,123.9-87.82,16.92-13.26,50.89-25,55.62-28.06s36.15-44.18,46.77-64.3c8-15.09,0-28.19-4.44-33.8-1.62-2-3.21-4.06-4.8-6.11C665.07,427.26,654.24,416.42,637.69,420.54Z" transform="translate(-334.63 -342.83)"/><path class="cls-3" d="M472.55,545,518,602.9s2.91,4.76-11.06,12.81-29.8,18-29.8,18-2,2.78-8.72-2.68-22.33-21.62-35.77-48.54c0,0-1.51-1.92,4.33-8S466.28,547,466.28,547,469.88,543.12,472.55,545Z" transform="translate(-334.63 -342.83)"/><path class="cls-2" d="M633,404.63a11.12,11.12,0,0,0-1.07-.31c-3.9-1-17.63-3.15-27.76,10.6-11.92,16.18,23.72,12,32.3,1.46" transform="translate(-334.63 -342.83)"/><path class="cls-2" d="M692.69,480.73s0,.41,0,1.12c0,4-1.15,17.87-16.92,24.42-18.56,7.71-6-25.89,6.29-31.71" transform="translate(-334.63 -342.83)"/><path class="cls-4" d="M610.39,410.07s-3.24,3,1.33,7.65,16.52,4.44,22.4.45,7.16-8.09,3.17-11.8-15.93-1.18-17.74-.68A32.37,32.37,0,0,0,610.39,410.07Z" transform="translate(-334.63 -342.83)"/><path class="cls-4" d="M681.73,501.09s-3.69,2.43-7.11-3.12-.36-17.1,4.91-21.85,9.57-5,12.22-.26-2.66,15.74-3.57,17.39A33,33,0,0,1,681.73,501.09Z" transform="translate(-334.63 -342.83)"/><path class="cls-5" d="M681,478.37a8.73,8.73,0,0,1,8.28,3.69,7,7,0,0,1,.85,6.84c-1.15,2.83-3.08,6.87-5.5,9.3,0,0-2.79,4-5.33,3.4s-3.89-1.73-5.11-4.49a16.54,16.54,0,0,1,.09-12c.41-1,.76-1.84,1.06-2.53A7,7,0,0,1,681,478.37Z" transform="translate(-334.63 -342.83)"/><path class="cls-6" d="M689.49,484a4.07,4.07,0,1,1-5.72-.69A4.08,4.08,0,0,1,689.49,484Z" transform="translate(-334.63 -342.83)"/><path class="cls-5" d="M632.26,416.22a8.72,8.72,0,0,0-1.59-8.93,7,7,0,0,0-6.45-2.46c-3,.45-7.4,1.36-10.34,3.12,0,0-4.56,1.76-4.57,4.36s.74,4.2,3.13,6a16.63,16.63,0,0,0,11.66,2.78l2.7-.42A7,7,0,0,0,632.26,416.22Z" transform="translate(-334.63 -342.83)"/><path class="cls-6" d="M628.84,406.61a4.07,4.07,0,1,0-.7,5.72A4.07,4.07,0,0,0,628.84,406.61Z" transform="translate(-334.63 -342.83)"/><path class="cls-3" d="M616.27,480l-.36-.48,0,0c-4.42-5.2-27.33-30.34-53.77-27.19a8.11,8.11,0,0,0-5.34,3l-16.95,21.18a8.22,8.22,0,0,0,1,11.35c4,3.51,12.72,13.47,19.11,21q7.77,9.15,14.8,18.88c5.78,8,13.38,18.81,15.83,23.58a8.22,8.22,0,0,0,10.77,3.71L626,543.66a8.09,8.09,0,0,0,4.21-4.47c9.38-24.92-9.56-53.17-13.55-58.71l0,0Z" transform="translate(-334.63 -342.83)"/><path class="cls-7" d="M520,618.13c12.26-11.59,36.61-33.57,57.31-46l38.32-16.95a.79.79,0,0,1,.81,1.33c-10.83,8.78-38.81,31.07-57.46,42.4-14.17,8.62-28.27,16.58-37.25,21.55A1.48,1.48,0,0,1,520,618.13Z" transform="translate(-334.63 -342.83)"/><path class="cls-7" d="M458.7,539.94C472.88,530.8,500,512.41,517,495.27l25.61-33.16a.78.78,0,0,0-1.09-1.11c-11.12,8.43-39.44,30.27-54.91,45.67-11.75,11.71-22.85,23.49-29.82,31A1.48,1.48,0,0,0,458.7,539.94Z" transform="translate(-334.63 -342.83)"/><path class="cls-8" d="M409.69,572.05s-13,16.7-4.65,36.85c0,0-1.13,4.1-4,.63s-6.89-20.22,4.95-34.62A13.66,13.66,0,0,1,409.69,572.05Z" transform="translate(-334.63 -342.83)"/><path class="cls-8" d="M477.52,658.6s-19.32,8.62-36.89-4.3c0,0-4.25.12-1.55,3.7s18,11.52,34.79,3.46A13.92,13.92,0,0,0,477.52,658.6Z" transform="translate(-334.63 -342.83)"/><path class="cls-3" d="M539.82,476.54s-21.74,30.49-78.4,74.9l24.24,30.92,105.63-82.79Z" transform="translate(-334.63 -342.83)"/><path class="cls-3" d="M601.36,555.06s-34.8,13.82-91.46,58.23l-24.24-30.93,105.63-82.79Z" transform="translate(-334.63 -342.83)"/><rect class="cls-1" x="487.49" y="542.37" width="84.87" height="10.01" transform="translate(299.22 -550.2) rotate(51.91)"/><g class="cls-9"><path class="cls-6" d="M604.34,480.47s-18.56-20.35-37.42-18.38c-15.57,1.61-14.79,15.5-29.92,30.73-10.61,10.67-10.93,27.94-.09,38.38q.8.75,1.65,1.5c14.75,12.71,37.29-20.88,51.77-26.15S611.49,490.81,604.34,480.47Z" transform="translate(-334.63 -342.83)"/></g><g class="cls-9"><path class="cls-6" d="M462.58,609.67s-16.84-17.61-14-34.15C451,561.88,463.19,563.4,477.54,551c10.06-8.72,25.33-8,33.89,2.24.41.49.82,1,1.22,1.54C523,568.53,492,586.41,486.46,598.87S471.28,616.6,462.58,609.67Z" transform="translate(-334.63 -342.83)"/></g><path class="cls-2" d="M465.39,513.76s-18.47,35.34-64,54.3c0,0,11-19.95,30.32-34.29S465.39,513.76,465.39,513.76Z" transform="translate(-334.63 -342.83)"/><path class="cls-2" d="M478.51,665.87s38.42-9.42,67.48-48.75c0,0-21.83,5.87-40.22,21.08S478.51,665.87,478.51,665.87Z" transform="translate(-334.63 -342.83)"/><path class="cls-10" d="M630.93,540a1.62,1.62,0,0,1-.35-1.14c2.31-32.14-8.42-56.51-31.87-72.44A93.46,93.46,0,0,0,562.58,452a1.65,1.65,0,1,1,.42-3.28,95.09,95.09,0,0,1,37.57,14.94c16.84,11.44,36.3,33.82,33.31,75.42a1.65,1.65,0,0,1-1.77,1.53A1.6,1.6,0,0,1,630.93,540Z" transform="translate(-334.63 -342.83)"/><path class="cls-10" d="M448.38,613.27a119.19,119.19,0,0,1-17.48-31.38,1.66,1.66,0,1,1,3.13-1.08c.13.38,13.39,38,42.7,52a1.65,1.65,0,1,1-1.43,3C464.07,630.41,455.17,621.93,448.38,613.27Z" transform="translate(-334.63 -342.83)"/><g class="cls-11"><path class="cls-2" d="M693.43,444.17a3.74,3.74,0,0,1-.79-2.3,22.47,22.47,0,0,0-14.93-21.15,3.74,3.74,0,0,1,2.51-7,30,30,0,0,1,19.89,28.19,3.74,3.74,0,0,1-6.68,2.3Z" transform="translate(-334.63 -342.83)"/></g><g class="cls-12"><path class="cls-2" d="M712.41,445.71a3.74,3.74,0,0,1-.79-2.3,45,45,0,0,0-29.85-42.29,3.74,3.74,0,0,1,2.5-7,52.45,52.45,0,0,1,34.82,49.33,3.74,3.74,0,0,1-6.68,2.3Z" transform="translate(-334.63 -342.83)"/></g><g class="cls-13"><path class="cls-2" d="M732.06,446.93a3.68,3.68,0,0,1-.79-2.3,67.74,67.74,0,0,0-45-63.7,3.73,3.73,0,1,1,2.5-7,75.21,75.21,0,0,1,49.92,70.73,3.73,3.73,0,0,1-6.67,2.3Z" transform="translate(-334.63 -342.83)"/></g><g class="cls-14"><path class="cls-2" d="M751.23,446.93a3.7,3.7,0,0,1-.79-2.3,88.29,88.29,0,0,0-58.62-83.05,3.74,3.74,0,0,1,2.5-7,95.77,95.77,0,0,1,63.58,90.08,3.73,3.73,0,0,1-6.67,2.31Z" transform="translate(-334.63 -342.83)"/></g><g class="cls-11"><path class="cls-2" d="M401,635.06a3.71,3.71,0,0,1,.8,2.3,22.48,22.48,0,0,0,14.92,21.15,3.74,3.74,0,0,1-2.5,7,29.95,29.95,0,0,1-19.89-28.18,3.73,3.73,0,0,1,6.67-2.31Z" transform="translate(-334.63 -342.83)"/></g><g class="cls-12"><path class="cls-2" d="M382,633.52a3.73,3.73,0,0,1,.8,2.3,45,45,0,0,0,29.84,42.3,3.73,3.73,0,1,1-2.5,7,52.43,52.43,0,0,1-34.81-49.32,3.73,3.73,0,0,1,6.67-2.31Z" transform="translate(-334.63 -342.83)"/></g><g class="cls-13"><path class="cls-2" d="M362.36,632.3a3.74,3.74,0,0,1,.79,2.3,67.74,67.74,0,0,0,45,63.7,3.74,3.74,0,1,1-2.5,7,75.2,75.2,0,0,1-49.93-70.74,3.74,3.74,0,0,1,6.68-2.3Z" transform="translate(-334.63 -342.83)"/></g><g class="cls-14"><path class="cls-2" d="M343.18,632.3a3.74,3.74,0,0,1,.8,2.31,88.3,88.3,0,0,0,58.61,83,3.74,3.74,0,0,1-2.5,7,95.77,95.77,0,0,1-63.58-90.08,3.73,3.73,0,0,1,6.67-2.31Z" transform="translate(-334.63 -342.83)"/></g><polygon class="cls-15" points="279.24 23.69 275.54 18.97 299.75 0 319.36 25.02 314.64 28.72 298.73 8.42 279.24 23.69"/><polygon class="cls-16" points="400.29 178.14 396.59 173.41 416.07 158.14 400.16 137.84 404.88 134.14 424.49 159.16 400.29 178.14"/><polygon class="cls-17" points="124.75 394.1 105.14 369.07 109.86 365.38 125.77 385.68 145.25 370.4 148.95 375.12 124.75 394.1"/><polygon class="cls-18" points="19.61 259.95 0 234.93 24.21 215.96 27.91 220.68 8.42 235.95 24.33 256.25 19.61 259.95"/><path class="cls-2" d="M412.78,509.24c.69.87,1.73,1,3.13.49a6.15,6.15,0,0,0,1.57-.91,5.89,5.89,0,0,0,1.25-1.3c.87-1.22,1-2.27.28-3.15a2.05,2.05,0,0,0-2.19-.63,15.24,15.24,0,0,0-2.9,1.07,15.61,15.61,0,0,1-4.45,1.48,4.37,4.37,0,0,1-4-1.86,4.7,4.7,0,0,1-1-3.28,6.36,6.36,0,0,1,1.25-3.22,9.23,9.23,0,0,1,1.81-1.89,9.06,9.06,0,0,1,2.27-1.3,6.23,6.23,0,0,1,3.42-.43,4.64,4.64,0,0,1,2.94,1.81l-2.21,1.72c-.68-.87-1.72-1-3.13-.5a6.22,6.22,0,0,0-1.56.91,6.77,6.77,0,0,0-1.27,1.3c-.86,1.23-.95,2.28-.27,3.16a2.09,2.09,0,0,0,2.19.63,14.78,14.78,0,0,0,2.9-1.08,15.31,15.31,0,0,1,4.45-1.47,4.34,4.34,0,0,1,4,1.85,4.65,4.65,0,0,1,1,3.29,6.36,6.36,0,0,1-1.23,3.22,9.49,9.49,0,0,1-4.08,3.19,6.39,6.39,0,0,1-3.44.42,4.65,4.65,0,0,1-2.93-1.8Z" transform="translate(-334.63 -342.83)"/><path class="cls-2" d="M420.26,491.94l.53.67a4.59,4.59,0,0,1,1.91-3,5.58,5.58,0,0,1,4.9-1.16,6.52,6.52,0,0,1,.91.31,4.3,4.3,0,0,1,1.7-5,5.56,5.56,0,0,1,4.9-1.17,8.23,8.23,0,0,1,4.5,3.17l4.31,5.53L441.71,493l-4.31-5.52a5.52,5.52,0,0,0-2.94-2.18,3.28,3.28,0,0,0-3.77,3,5.52,5.52,0,0,0,1.4,3.37l4.32,5.53-2.21,1.72-4.32-5.52a5.5,5.5,0,0,0-2.93-2.18,2.88,2.88,0,0,0-2.52.65,2.94,2.94,0,0,0-1.26,2.3,5.56,5.56,0,0,0,1.4,3.36l4.32,5.54-2.21,1.72-8.63-11Z" transform="translate(-334.63 -342.83)"/><path class="cls-2" d="M447.83,472.57l-1.05-1.34L449,469.5l8.63,11.05-2.21,1.73-1-1.34a5.64,5.64,0,0,1-2.34,4.42,7.36,7.36,0,0,1-9.06-11.6A5.6,5.6,0,0,1,447.83,472.57Zm3.26,4.18a4.47,4.47,0,0,0-3-1.71,4.56,4.56,0,1,0,2.25,8.11,4.55,4.55,0,0,0,.79-6.39Z" transform="translate(-334.63 -342.83)"/><path class="cls-2" d="M461.34,464.52a4,4,0,0,0-4.55,3.55,4.76,4.76,0,0,0,1.1,3.36l4.33,5.53L460,478.69l-8.63-11.05,2.21-1.73.84,1.09a5.13,5.13,0,0,1,2.15-3.88,6.45,6.45,0,0,1,5.22-1.36,6.86,6.86,0,0,1,1.91.6l-1,2.61A3.83,3.83,0,0,0,461.34,464.52Z" transform="translate(-334.63 -342.83)"/><path class="cls-2" d="M463.75,452.64l2.59,3.31,1.65-1.29,1.73,2.21-1.66,1.29L475,467l-2.21,1.73-6.91-8.84-1.66,1.3L462.47,459l1.66-1.3-2.59-3.32Z" transform="translate(-334.63 -342.83)"/><path class="cls-2" d="M479.46,450.24l1.72,2.21-7.27,5.68-1.73-2.2Z" transform="translate(-334.63 -342.83)"/><path class="cls-2" d="M488.27,456.61l-11.21-14.36,5.12-4a7.43,7.43,0,0,1,5.07-1.73,5.88,5.88,0,0,1,4.49,2.4,7.1,7.1,0,0,1-1.23,10l-2.92,2.28,2.89,3.7ZM481,442.72l4.89,6.26,2.92-2.28a4.13,4.13,0,0,0,1.63-2.87,4.26,4.26,0,0,0-.87-3.2h0a3.25,3.25,0,0,0-2.43-1.34,4.72,4.72,0,0,0-3.2,1.15h0Z" transform="translate(-334.63 -342.83)"/><path class="cls-2" d="M502.58,429.81l-1.05-1.34,2.21-1.73,8.63,11.05-2.21,1.72-1-1.33a5.66,5.66,0,0,1-2.33,4.42A7.37,7.37,0,0,1,497.72,431,5.63,5.63,0,0,1,502.58,429.81Zm3.27,4.18a4.47,4.47,0,0,0-3-1.71,4.56,4.56,0,1,0,3,1.72Z" transform="translate(-334.63 -342.83)"/><path class="cls-2" d="M516.1,421.75a3.8,3.8,0,0,0-3,.83,3.75,3.75,0,0,0-1.52,2.73,4.68,4.68,0,0,0,1.1,3.35L517,434.2l-2.21,1.72-8.63-11,2.21-1.73.85,1.08a5.08,5.08,0,0,1,2.15-3.87,6.46,6.46,0,0,1,5.21-1.37,7.3,7.3,0,0,1,1.92.61l-1.06,2.6A4.33,4.33,0,0,0,516.1,421.75Z" transform="translate(-334.63 -342.83)"/><path class="cls-2" d="M517.24,410.86l6,7.68,2.21-8.75L529,407l-1.75,7a6.82,6.82,0,0,1,3.6-.5,6.72,6.72,0,0,1,4.66,2.63l1.75,2.24-2.21,1.73-1.74-2.24a4.23,4.23,0,0,0-5.91-.73l-1.18.93-.84,3.32,3.05,3.9L526.25,427,515,412.59Z" transform="translate(-334.63 -342.83)"/><path class="cls-2" d="M530.93,400.14l1.72,2.21-2.21,1.73-1.72-2.21Zm2.6,3.33,8.63,11L540,416.25l-8.63-11.05Z" transform="translate(-334.63 -342.83)"/><path class="cls-2" d="M538.43,399.65l.71.92a5.31,5.31,0,0,1,2.28-3.7,6.48,6.48,0,0,1,5.2-1.5,7.58,7.58,0,0,1,4.74,3.07l4.32,5.53-2.21,1.72-4.32-5.52a4.91,4.91,0,0,0-3-2,4.51,4.51,0,0,0-4.68,3.65,4.86,4.86,0,0,0,1.25,3.38l4.32,5.54-2.21,1.72-8.63-11Z" transform="translate(-334.63 -342.83)"/><path class="cls-2" d="M556,398.6a7.12,7.12,0,0,1-2.36-2,7.36,7.36,0,0,1,1.47-10.47,6,6,0,0,1,5.18-1.26l-1.12-1.43,2.17-1.7,6.77,8.67a7.94,7.94,0,0,1,1.68,6.09,7.6,7.6,0,0,1-2.9,5.33,9.32,9.32,0,0,1-3.6,1.77,6.72,6.72,0,0,1-3.83-.18l.77-2.62a4.13,4.13,0,0,0,2.37.15,6.37,6.37,0,0,0,2.59-1.29,4.77,4.77,0,0,0,1.73-2.87,5.26,5.26,0,0,0-.44-3.56A5.62,5.62,0,0,1,564,397.6Q560.05,400.65,556,398.6Zm7.33-9.82a4.55,4.55,0,0,0-1.33-1.07,5,5,0,0,0-7,5.5,4.62,4.62,0,0,0,.85,1.72h0a4.53,4.53,0,0,0,1.48,1.24,5,5,0,0,0,7-5.49,4.58,4.58,0,0,0-.86-1.74Z" transform="translate(-334.63 -342.83)"/><path class="cls-2" d="M690.44,558c-.69-.87-1.73-1-3.13-.46a6.39,6.39,0,0,0-1.55.92,6.2,6.2,0,0,0-1.25,1.32c-.86,1.23-.94,2.28-.25,3.15a2.07,2.07,0,0,0,2.2.61,15,15,0,0,0,2.89-1.1,15.65,15.65,0,0,1,4.43-1.53,4.38,4.38,0,0,1,4,1.82,4.67,4.67,0,0,1,1.08,3.28,6.37,6.37,0,0,1-1.22,3.23,8.93,8.93,0,0,1-1.79,1.9,9.12,9.12,0,0,1-2.26,1.33,6.21,6.21,0,0,1-3.41.46,4.67,4.67,0,0,1-3-1.77l2.19-1.75c.69.87,1.74,1,3.14.47a6.76,6.76,0,0,0,2.8-2.24c.85-1.24.93-2.29.24-3.16a2.09,2.09,0,0,0-2.2-.61,14.74,14.74,0,0,0-2.88,1.11,15.81,15.81,0,0,1-4.44,1.52,4.38,4.38,0,0,1-4-1.82,4.66,4.66,0,0,1-1.06-3.27,6.28,6.28,0,0,1,1.2-3.24,9,9,0,0,1,1.8-1.9,9.2,9.2,0,0,1,2.25-1.33,6.47,6.47,0,0,1,3.43-.46,4.7,4.7,0,0,1,2.95,1.77Z" transform="translate(-334.63 -342.83)"/><path class="cls-2" d="M683.14,575.39l-.54-.67a4.53,4.53,0,0,1-1.88,3,5.55,5.55,0,0,1-4.88,1.21,8.21,8.21,0,0,1-.92-.3,4.29,4.29,0,0,1-1.64,5,5.54,5.54,0,0,1-4.89,1.22,8.22,8.22,0,0,1-4.53-3.12l-4.37-5.48,2.19-1.75,4.37,5.48a5.57,5.57,0,0,0,3,2.15,2.92,2.92,0,0,0,2.52-.69,2.86,2.86,0,0,0,1.22-2.3,5.58,5.58,0,0,0-1.44-3.36l-4.37-5.48,2.2-1.75,4.37,5.48a5.5,5.5,0,0,0,3,2.15,2.84,2.84,0,0,0,2.51-.68,2.92,2.92,0,0,0,1.24-2.3,5.52,5.52,0,0,0-1.43-3.35l-4.38-5.49,2.19-1.75,8.74,11Z" transform="translate(-334.63 -342.83)"/><path class="cls-2" d="M655.77,595l1.06,1.33-2.19,1.75-8.74-11,2.19-1.75,1.06,1.33a5.64,5.64,0,0,1,2.29-4.45,7.05,7.05,0,0,1,5.4-1.56,7.37,7.37,0,0,1,3.78,13.08A5.65,5.65,0,0,1,655.77,595Zm-3.31-4.15a4.55,4.55,0,0,0,6.4.72,4.39,4.39,0,0,0,1.69-3.05,4.32,4.32,0,0,0-1-3.35,4.42,4.42,0,0,0-3.06-1.7,4.36,4.36,0,0,0-3.34,1,4.52,4.52,0,0,0-.73,6.39Z" transform="translate(-334.63 -342.83)"/><path class="cls-2" d="M642.34,603.22a4,4,0,0,0,4.51-3.6,4.67,4.67,0,0,0-1.13-3.34l-4.38-5.49,2.19-1.75,8.74,11-2.19,1.75-.86-1.08a5.12,5.12,0,0,1-2.11,3.9,6.46,6.46,0,0,1-5.2,1.42,7.26,7.26,0,0,1-1.92-.59l1-2.61A4,4,0,0,0,642.34,603.22Z" transform="translate(-334.63 -342.83)"/><path class="cls-2" d="M640.05,615.12l-2.62-3.29-1.64,1.31L634,611l1.64-1.31-7-8.77,2.19-1.74,7,8.76,1.64-1.31,1.75,2.19-1.65,1.32,2.63,3.29Z" transform="translate(-334.63 -342.83)"/><path class="cls-2" d="M624.37,617.68l-1.75-2.19,7.22-5.76,1.75,2.19Z" transform="translate(-334.63 -342.83)"/><path class="cls-2" d="M615.49,611.4l11.36,14.25-5.08,4.06a7.43,7.43,0,0,1-5.06,1.78,5.91,5.91,0,0,1-4.51-2.36,7.08,7.08,0,0,1,1.13-10l2.9-2.31-2.93-3.67Zm7.43,13.82L618,619l-2.9,2.3a4.18,4.18,0,0,0-1.6,2.89,4.25,4.25,0,0,0,.91,3.19h0a3.23,3.23,0,0,0,2.44,1.32,4.75,4.75,0,0,0,3.19-1.19h0Z" transform="translate(-334.63 -342.83)"/><path class="cls-2" d="M601.45,638.34l1.07,1.34-2.2,1.74-8.74-11,2.2-1.74,1.05,1.32a5.61,5.61,0,0,1,2.29-4.44,7.36,7.36,0,0,1,9.18,11.51A5.59,5.59,0,0,1,601.45,638.34Zm-3.3-4.14a4.54,4.54,0,0,0,6.39.71,4.55,4.55,0,1,0-7.36-4.08,4.44,4.44,0,0,0,1,3.36Z" transform="translate(-334.63 -342.83)"/><path class="cls-2" d="M588,646.54a3.84,3.84,0,0,0,3-.86,3.75,3.75,0,0,0,1.49-2.74,4.7,4.7,0,0,0-1.13-3.35L587,634.1l2.19-1.75,8.74,11-2.19,1.75L594.9,644a5.06,5.06,0,0,1-2.11,3.89,6.45,6.45,0,0,1-5.2,1.42,6.91,6.91,0,0,1-1.92-.59l1-2.61A4.37,4.37,0,0,0,588,646.54Z" transform="translate(-334.63 -342.83)"/><path class="cls-2" d="M587,657.44l-6.07-7.62-2.12,8.77-3.57,2.84,1.69-7a7,7,0,0,1-8.29-2.05l-1.77-2.22,2.19-1.75,1.77,2.22a4.23,4.23,0,0,0,5.91.67l1.18-.94.8-3.32-3.08-3.87,2.19-1.75,11.36,14.25Z" transform="translate(-334.63 -342.83)"/><path class="cls-2" d="M573.41,668.3l-1.75-2.19,2.19-1.75,1.75,2.19ZM570.77,665,562,654l2.19-1.75,8.74,11Z" transform="translate(-334.63 -342.83)"/><path class="cls-2" d="M565.91,668.86l-.72-.9a5.31,5.31,0,0,1-2.24,3.72,6.52,6.52,0,0,1-5.19,1.55,7.6,7.6,0,0,1-4.77-3l-4.37-5.48,2.19-1.75,4.37,5.49a5,5,0,0,0,3,2,3.83,3.83,0,0,0,3-1,3.79,3.79,0,0,0,1.63-2.71,4.89,4.89,0,0,0-1.28-3.38l-4.38-5.49,2.19-1.74,8.74,11Z" transform="translate(-334.63 -342.83)"/><path class="cls-2" d="M548.37,670.1a7,7,0,0,1,2.37,1.94,7.37,7.37,0,0,1-1.36,10.49,6,6,0,0,1-5.17,1.31l1.13,1.43L543.19,687l-6.86-8.6a8,8,0,0,1-1.74-6.07,7.69,7.69,0,0,1,2.85-5.36,9.48,9.48,0,0,1,3.58-1.81,6.72,6.72,0,0,1,3.83.15l-.74,2.63a4.14,4.14,0,0,0-2.37-.14,6.61,6.61,0,0,0-2.58,1.32,4.81,4.81,0,0,0-1.7,2.89,5.27,5.27,0,0,0,.48,3.56,5.56,5.56,0,0,1,2.39-4.37Q544.28,668.09,548.37,670.1ZM541.13,680a4.94,4.94,0,0,0,8.33-4.5,4.59,4.59,0,0,0-.87-1.72h0a4.94,4.94,0,0,0-8.48,4.34,4.81,4.81,0,0,0,.88,1.73Z" transform="translate(-334.63 -342.83)"/></svg>